<svg width="9" height="15" viewBox="0 0 9 15" fill="none" xmlns="http://www.w3.org/2000/svg">
<path d="M7.71697 0.00302135L5.84154 0C3.73456 0 2.37294 1.40266 2.37294 3.57365V5.22134H0.487276C0.324333 5.22134 0.192383 5.35398 0.192383 5.51758V7.9049C0.192383 8.06851 0.324483 8.20099 0.487276 8.20099H2.37294V14.225C2.37294 14.3886 2.50488 14.521 2.66783 14.521H5.12808C5.29102 14.521 5.42297 14.3884 5.42297 14.225V8.20099H7.62775C7.79069 8.20099 7.92264 8.06851 7.92264 7.9049L7.92354 5.51758C7.92354 5.43903 7.8924 5.3638 7.83718 5.3082C7.78196 5.25261 7.70674 5.22134 7.6285 5.22134H5.42297V3.82457C5.42297 3.15323 5.5823 2.81242 6.45329 2.81242L7.71667 2.81197C7.87946 2.81197 8.01141 2.67933 8.01141 2.51588V0.299113C8.01141 0.13581 7.87961 0.00332348 7.71697 0.00302135Z" fill="black"/>
</svg>
