<svg width="91" height="91" viewBox="0 0 91 91" fill="none" xmlns="http://www.w3.org/2000/svg">
<g filter="url(#filter0_d)">
<path d="M27 41.5C27 31.2827 35.2827 23 45.5 23C55.7173 23 64 31.2827 64 41.5C64 51.7173 55.7173 60 45.5 60C35.2827 60 27 51.7173 27 41.5Z" fill="#151515"/>
</g>
<path d="M48.7364 35.0027L47.0574 35C45.1711 35 43.9521 36.2557 43.9521 38.1993V39.6744H42.264C42.1181 39.6744 42 39.7932 42 39.9396V42.0769C42 42.2233 42.1183 42.342 42.264 42.342H43.9521V47.7349C43.9521 47.8814 44.0703 48 44.2161 48H46.4187C46.5646 48 46.6827 47.8813 46.6827 47.7349V42.342H48.6565C48.8024 42.342 48.9205 42.2233 48.9205 42.0769L48.9213 39.9396C48.9213 39.8693 48.8935 39.802 48.844 39.7522C48.7946 39.7024 48.7272 39.6744 48.6572 39.6744H46.6827V38.424C46.6827 37.8229 46.8253 37.5178 47.6051 37.5178L48.7361 37.5174C48.8819 37.5174 49 37.3987 49 37.2523V35.2678C49 35.1216 48.882 35.003 48.7364 35.0027Z" fill="white"/>
<defs>
<filter id="filter0_d" x="0.449842" y="0.242722" width="90.1003" height="90.1003" filterUnits="userSpaceOnUse" color-interpolation-filters="sRGB">
<feFlood flood-opacity="0" result="BackgroundImageFix"/>
<feColorMatrix in="SourceAlpha" type="matrix" values="0 0 0 0 0 0 0 0 0 0 0 0 0 0 0 0 0 0 127 0"/>
<feOffset dy="3.79288"/>
<feGaussianBlur stdDeviation="13.2751"/>
<feColorMatrix type="matrix" values="0 0 0 0 0 0 0 0 0 0 0 0 0 0 0 0 0 0 0.15 0"/>
<feBlend mode="normal" in2="BackgroundImageFix" result="effect1_dropShadow"/>
<feBlend mode="normal" in="SourceGraphic" in2="effect1_dropShadow" result="shape"/>
</filter>
</defs>
</svg>
