<svg width="8" height="16" viewBox="0 0 8 16" fill="none" xmlns="http://www.w3.org/2000/svg">
<path d="M7.52458 0.800385L5.64916 0.797363C3.54218 0.797363 2.18055 2.20002 2.18055 4.37101V6.0187H0.294893C0.13195 6.0187 0 6.15134 0 6.31495V8.70226C0 8.86587 0.1321 8.99835 0.294893 8.99835H2.18055V15.0223C2.18055 15.1859 2.3125 15.3184 2.47545 15.3184H4.93569C5.09864 15.3184 5.23059 15.1858 5.23059 15.0223V8.99835H7.43536C7.59831 8.99835 7.73026 8.86587 7.73026 8.70226L7.73116 6.31495C7.73116 6.23639 7.70002 6.16116 7.6448 6.10557C7.58958 6.04997 7.51435 6.0187 7.43612 6.0187H5.23059V4.62193C5.23059 3.95059 5.38992 3.60978 6.26091 3.60978L7.52428 3.60933C7.68708 3.60933 7.81903 3.47669 7.81903 3.31324V1.09648C7.81903 0.933173 7.68723 0.800687 7.52458 0.800385Z" fill="white"/>
</svg>
