<svg width="35" height="35" viewBox="0 0 35 35" fill="none" xmlns="http://www.w3.org/2000/svg">
<rect x="3" y="3" width="32" height="32" fill="#1B4DC4"/>
<path d="M0 0L32 0V32H0L0 0Z" fill="white"/>
<path d="M8.56991 7.06034H12.555V8.26845H9.8787V9.47657H12.3537V10.6847H9.8787V13.0002H8.56991V7.06034Z" fill="#316EFF"/>
<path d="M19.8029 7.06009H21.1117V11.7919H23.5363V13H19.8029V7.06009Z" fill="#316EFF"/>
<path d="M12.9051 21.7099C12.9051 22.0622 12.8519 22.3866 12.7457 22.6831C12.6394 22.9795 12.48 23.2368 12.2674 23.4549C12.0605 23.673 11.8004 23.8436 11.4872 23.9667C11.174 24.0897 10.8132 24.1513 10.4049 24.1513C9.99104 24.1513 9.62749 24.0897 9.31427 23.9667C9.00106 23.8436 8.73818 23.673 8.52564 23.4549C8.31869 23.2368 8.16209 22.9795 8.05582 22.6831C7.94955 22.3866 7.89641 22.0622 7.89641 21.7099V18.0603H9.2052V21.6595C9.2052 21.8441 9.23317 22.0147 9.2891 22.1713C9.35063 22.3279 9.43452 22.4649 9.54079 22.5824C9.64706 22.6942 9.77291 22.7837 9.91833 22.8509C10.0693 22.9124 10.2315 22.9431 10.4049 22.9431C10.5783 22.9431 10.7377 22.9124 10.8831 22.8509C11.0286 22.7837 11.1544 22.6942 11.2607 22.5824C11.367 22.4649 11.4481 22.3279 11.504 22.1713C11.5655 22.0147 11.5963 21.8441 11.5963 21.6595V18.0603H12.9051V21.7099Z" fill="#316EFF"/>
<path d="M20.4154 20.8961L18.4522 18.0603H20.0966L21.3634 20.141L22.5799 18.0603H24.1656L22.2443 20.8709L24.3921 24.0002H22.7477L21.2963 21.6092L19.8868 24.0002H18.3347L20.4154 20.8961Z" fill="#316EFF"/>
</svg>
