<svg width="1869" height="338" viewBox="0 0 1869 338" fill="none" xmlns="http://www.w3.org/2000/svg">
<mask id="mask0" mask-type="alpha" maskUnits="userSpaceOnUse" x="1043" y="44" width="193" height="236">
<path d="M1140.35 44C1192.98 44 1235.66 84.626 1235.66 134.737C1235.66 184.847 1192.98 225.473 1140.35 225.473C1120.49 225.473 1102.07 219.681 1086.81 209.796V279.195H1043V49.3963H1086.81V59.6778C1102.07 49.7919 1120.49 44 1140.35 44ZM1140.35 184.71C1169.35 184.71 1192.84 162.339 1192.84 134.737C1192.84 107.134 1169.35 84.7579 1140.35 84.7579C1111.36 84.7579 1087.85 107.134 1087.85 134.737C1087.85 162.339 1111.36 184.71 1140.35 184.71Z" fill="white"/>
</mask>
<g mask="url(#mask0)">
<path fill-rule="evenodd" clip-rule="evenodd" d="M1042.37 279.251H1236.24V43.8363H1042.37V279.251Z" fill="#2C4DFF"/>
</g>
<mask id="mask1" mask-type="alpha" maskUnits="userSpaceOnUse" x="1247" y="44" width="143" height="178">
<path d="M1347.57 44C1362.73 44 1377.03 47.451 1389.76 53.4572C1377.24 63.3871 1367.07 75.8886 1360.11 90.0992C1354.26 87.7748 1347.85 86.4724 1341.1 86.4724C1314.64 86.4724 1293.11 106.338 1291.92 131.247H1291.8V133.374C1291.8 133.39 1291.79 133.407 1291.79 133.418C1291.79 133.429 1291.8 133.445 1291.8 133.456V208.213C1291.79 208.208 1291.78 208.197 1291.77 208.191V221.852H1247.96V49.3963H1291.77V61.2824C1307.46 50.4569 1326.69 44 1347.57 44Z" fill="white"/>
</mask>
<g mask="url(#mask1)">
<path fill-rule="evenodd" clip-rule="evenodd" d="M1247.39 221.881H1389.82V43.8363H1247.39V221.881Z" fill="#2C4DFF"/>
</g>
<mask id="mask2" mask-type="alpha" maskUnits="userSpaceOnUse" x="1365" y="44" width="192" height="182">
<path d="M1460.82 44C1513.45 44 1556.13 84.626 1556.13 134.737C1556.13 184.847 1513.45 225.473 1460.82 225.473C1408.18 225.473 1365.51 184.847 1365.51 134.737C1365.51 84.626 1408.18 44 1460.82 44ZM1460.82 185.391C1490.2 185.391 1514.03 162.713 1514.03 134.737C1514.03 106.761 1490.2 84.0765 1460.82 84.0765C1431.43 84.0765 1407.61 106.761 1407.61 134.737C1407.61 162.713 1431.43 185.391 1460.82 185.391Z" fill="white"/>
</mask>
<g mask="url(#mask2)">
<path fill-rule="evenodd" clip-rule="evenodd" d="M1365.41 225.815H1556.64V43.8142H1365.41V225.815Z" fill="#2C4DFF"/>
</g>
<mask id="mask3" mask-type="alpha" maskUnits="userSpaceOnUse" x="1568" y="44" width="191" height="182">
<path d="M1663.31 44C1715.94 44 1758.62 84.626 1758.62 134.737C1758.62 184.847 1715.94 225.473 1663.31 225.473C1610.67 225.473 1568 184.847 1568 134.737C1568 84.626 1610.67 44 1663.31 44ZM1663.31 185.391C1692.69 185.391 1716.52 162.713 1716.52 134.737C1716.52 106.761 1692.69 84.0765 1663.31 84.0765C1633.92 84.0765 1610.1 106.761 1610.1 134.737C1610.1 162.713 1633.92 185.391 1663.31 185.391Z" fill="white"/>
</mask>
<g mask="url(#mask3)">
<path fill-rule="evenodd" clip-rule="evenodd" d="M1567.9 225.815H1759.13V43.8142H1567.9V225.815Z" fill="#2C4DFF"/>
</g>
<path d="M5 50.5H2.5V53V228V230.5H5H43.5H46V228V162.75H127H129.5V160.25V125.25V122.75H127H46V90.5H138.25H140.75V88V53V50.5H138.25H5ZM163.812 50.5H161.312V53V153C161.312 179.249 168.177 199.423 182.328 213.051C196.405 226.606 215.588 233.25 239.562 233.25C251.454 233.25 262.31 231.636 272.103 228.372L272.122 228.366L272.14 228.359C281.955 224.915 290.36 219.814 297.308 213.04L297.319 213.029L297.33 213.018C304.282 206.066 309.551 197.493 313.162 187.355C316.952 177.182 318.812 165.296 318.812 151.75V53V50.5H316.312H277.812H275.312V53V153.25C275.312 166.894 272.062 176.663 266.002 183.026C259.91 189.423 251.376 192.75 240.062 192.75C228.773 192.75 220.249 189.355 214.153 182.808C208.065 176.104 204.812 165.979 204.812 152V53V50.5H202.312H163.812ZM338.027 88.5V91H340.527H391.277V228V230.5H393.777H432.277H434.777V228V91H485.527H488.027V88.5V53V50.5H485.527H340.527H338.027V53V88.5ZM509.887 50.5H507.387V53V153C507.387 179.249 514.251 199.423 528.403 213.051C542.479 226.606 561.662 233.25 585.637 233.25C597.529 233.25 608.384 231.636 618.177 228.372L618.196 228.366L618.214 228.359C628.03 224.915 636.434 219.814 643.382 213.04L643.393 213.029L643.404 213.018C650.357 206.066 655.625 197.493 659.236 187.355C663.026 177.182 664.887 165.296 664.887 151.75V53V50.5H662.387H623.887H621.387V53V153.25C621.387 166.894 618.136 176.663 612.076 183.026C605.984 189.423 597.45 192.75 586.137 192.75C574.848 192.75 566.324 189.355 560.228 182.809C554.139 176.105 550.887 165.979 550.887 152V53V50.5H548.387H509.887ZM796.71 129.365L796.694 129.378L796.679 129.392C792.297 133.336 785.738 135.5 776.602 135.5H740.102V90.25H775.852C785.014 90.25 791.816 92.2616 796.562 95.9701C801.149 99.5536 803.602 104.989 803.602 112.75V113.25C803.602 120.104 801.276 125.388 796.71 129.365ZM699.102 50.5H696.602V53V228V230.5H699.102H737.602H740.102V228V174.5H766.517L803.274 229.391L804.017 230.5H805.352H850.352H855.09L852.415 226.589L811.429 166.667C821.656 162.335 830.059 155.958 836.579 147.53C843.993 137.994 847.602 125.832 847.602 111.25V110.75C847.602 93.5477 842.421 79.5341 831.869 68.9822C819.43 56.543 801.708 50.5 779.102 50.5H699.102ZM877.266 50.5H874.766V53V228V230.5H877.266H1010.52H1013.02V228V193.75V191.25H1010.52H918.016V159.5H998.016H1000.52V157V122.75V120.25H998.016H918.016V89.75H1009.27H1011.77V87.25V53V50.5H1009.27H877.266Z" stroke="#2C4DFF" stroke-width="5"/>
<path d="M1783.35 103.854H1765.02V67.479H1783.35V57.585C1783.35 40.707 1787.53 28.097 1795.87 19.755C1804.02 11.607 1815.95 7.53299 1831.66 7.53299C1838.64 7.53299 1844.56 7.92099 1849.41 8.69699C1854.46 9.47299 1859.01 10.54 1863.09 11.898V48.564C1859.79 47.4 1856.59 46.527 1853.49 45.945C1850.38 45.169 1846.89 44.781 1843.01 44.781C1832.34 44.781 1827 50.407 1827 61.659V67.77H1862.8V103.854H1827.59V222H1783.35V103.854Z" fill="#2C4DFF"/>
</svg>
