<svg width="18" height="17" viewBox="0 0 18 17" fill="none" xmlns="http://www.w3.org/2000/svg">
<path d="M12.6654 0H4.96467C2.4684 0 0.4375 2.0309 0.4375 4.52717V12.2279C0.4375 14.7242 2.4684 16.7551 4.96467 16.7551H12.6654C15.1617 16.7551 17.1926 14.7242 17.1926 12.2279V4.52717C17.1926 2.0309 15.1617 0 12.6654 0ZM15.8389 12.2279C15.8389 13.9778 14.4153 15.4014 12.6654 15.4014H4.96467C3.21478 15.4014 1.79112 13.9778 1.79112 12.2279V4.52717C1.79112 2.77728 3.21475 1.35362 4.96467 1.35362H12.6654C14.4153 1.35362 15.8389 2.77725 15.8389 4.52717V12.2279Z" fill="black"/>
<path d="M12.5652 7.79289C12.4461 6.98959 12.0796 6.26153 11.5054 5.68731C10.9312 5.11312 10.2031 4.74661 9.39983 4.62752C9.0341 4.5733 8.66329 4.5733 8.2976 4.62752C7.30486 4.77475 6.42892 5.29972 5.83107 6.10576C5.23322 6.9118 4.985 7.90245 5.13223 8.89512C5.27946 9.88782 5.80443 10.7638 6.61047 11.3616C7.26484 11.847 8.04074 12.1018 8.84076 12.1018C9.02621 12.1018 9.213 12.0882 9.3998 12.0605C10.3925 11.9132 11.2685 11.3883 11.8663 10.5822C12.4642 9.7762 12.7124 8.78559 12.5652 7.79289ZM9.20126 10.7215C8.56623 10.8158 7.93252 10.6569 7.41688 10.2744C6.90123 9.89198 6.56541 9.3316 6.47126 8.69658C6.37708 8.06156 6.53583 7.42784 6.91828 6.9122C7.30077 6.39655 7.86111 6.06073 8.49617 5.96655C8.61313 5.94921 8.7309 5.94054 8.84868 5.94054C8.96646 5.94054 9.08427 5.94921 9.20122 5.96658C10.256 6.12298 11.0697 6.93671 11.2262 7.99149C11.4205 9.30238 10.5122 10.5271 9.20126 10.7215Z" fill="black"/>
<path d="M13.5292 3.66358C13.4031 3.53756 13.2285 3.46533 13.0503 3.46533C12.8721 3.46533 12.6976 3.53752 12.5714 3.66358C12.4453 3.78963 12.373 3.96379 12.373 4.14218C12.373 4.32056 12.4453 4.49472 12.5714 4.62078C12.6976 4.7468 12.8721 4.81902 13.0503 4.81902C13.2285 4.81902 13.4031 4.74683 13.5292 4.62078C13.6553 4.49472 13.7276 4.32027 13.7276 4.14218C13.7276 3.96406 13.6553 3.7896 13.5292 3.66358Z" fill="black"/>
</svg>
