<svg width="91" height="91" viewBox="0 0 91 91" fill="none" xmlns="http://www.w3.org/2000/svg">
<g filter="url(#filter0_d)">
<path d="M27 41.5C27 31.2827 35.2827 23 45.5 23C55.7173 23 64 31.2827 64 41.5C64 51.7173 55.7173 60 45.5 60C35.2827 60 27 51.7173 27 41.5Z" fill="#151515"/>
</g>
<path d="M48.947 34H42.053C39.8182 34 38 35.8182 38 38.053V44.947C38 47.1818 39.8182 49 42.053 49H48.947C51.1818 49 53 47.1818 53 44.947V38.053C53 35.8182 51.1818 34 48.947 34ZM51.7882 44.947C51.7882 46.5136 50.5137 47.7882 48.947 47.7882H42.053C40.4864 47.7882 39.2118 46.5137 39.2118 44.947V38.053C39.2118 36.4864 40.4863 35.2118 42.053 35.2118H48.947C50.5136 35.2118 51.7882 36.4863 51.7882 38.053V44.947Z" fill="white"/>
<path d="M48.857 40.9767C48.7503 40.2575 48.4222 39.6057 47.9082 39.0916C47.3941 38.5776 46.7423 38.2495 46.0232 38.1429C45.6958 38.0943 45.3638 38.0943 45.0364 38.1429C44.1477 38.2747 43.3635 38.7446 42.8282 39.4663C42.293 40.1879 42.0708 41.0747 42.2026 41.9634C42.3344 42.8522 42.8044 43.6363 43.526 44.1716C44.1118 44.6061 44.8064 44.8343 45.5227 44.8343C45.6887 44.8343 45.8559 44.822 46.0231 44.7972C46.9119 44.6654 47.6961 44.1954 48.2313 43.4738C48.7666 42.7522 48.9888 41.8654 48.857 40.9767ZM45.8454 43.5985C45.2769 43.6829 44.7096 43.5407 44.2479 43.1983C43.7863 42.8559 43.4857 42.3542 43.4014 41.7857C43.3171 41.2172 43.4592 40.6498 43.8016 40.1882C44.144 39.7266 44.6456 39.4259 45.2142 39.3416C45.3189 39.3261 45.4243 39.3183 45.5298 39.3183C45.6352 39.3183 45.7407 39.3261 45.8454 39.3417C46.7896 39.4817 47.5182 40.2102 47.6582 41.1545C47.8322 42.328 47.019 43.4244 45.8454 43.5985Z" fill="white"/>
<path d="M49.7208 37.2798C49.6078 37.167 49.4515 37.1023 49.292 37.1023C49.1325 37.1023 48.9762 37.1669 48.8633 37.2798C48.7504 37.3926 48.6857 37.5485 48.6857 37.7082C48.6857 37.8679 48.7504 38.0239 48.8633 38.1367C48.9762 38.2495 49.1325 38.3142 49.292 38.3142C49.4515 38.3142 49.6078 38.2496 49.7208 38.1367C49.8336 38.0239 49.8983 37.8677 49.8983 37.7082C49.8983 37.5488 49.8336 37.3926 49.7208 37.2798Z" fill="white"/>
<defs>
<filter id="filter0_d" x="0.449842" y="0.242722" width="90.1003" height="90.1003" filterUnits="userSpaceOnUse" color-interpolation-filters="sRGB">
<feFlood flood-opacity="0" result="BackgroundImageFix"/>
<feColorMatrix in="SourceAlpha" type="matrix" values="0 0 0 0 0 0 0 0 0 0 0 0 0 0 0 0 0 0 127 0"/>
<feOffset dy="3.79288"/>
<feGaussianBlur stdDeviation="13.2751"/>
<feColorMatrix type="matrix" values="0 0 0 0 0 0 0 0 0 0 0 0 0 0 0 0 0 0 0.15 0"/>
<feBlend mode="normal" in2="BackgroundImageFix" result="effect1_dropShadow"/>
<feBlend mode="normal" in="SourceGraphic" in2="effect1_dropShadow" result="shape"/>
</filter>
</defs>
</svg>
