<svg width="15" height="15" viewBox="0 0 15 15" fill="none" xmlns="http://www.w3.org/2000/svg">
<path d="M10.947 0H4.05296C1.81816 0 0 1.81816 0 4.05296V10.947C0 13.1818 1.81816 15 4.05296 15H10.947C13.1818 15 15 13.1818 15 10.947V4.05296C15 1.81816 13.1818 0 10.947 0ZM13.7882 10.947C13.7882 12.5136 12.5137 13.7882 10.947 13.7882H4.05296C2.48637 13.7882 1.21184 12.5137 1.21184 10.947V4.05296C1.21184 2.48637 2.48634 1.21184 4.05296 1.21184H10.947C12.5136 1.21184 13.7882 2.48634 13.7882 4.05296V10.947V10.947Z" fill="white"/>
<path d="M10.857 6.97665C10.7503 6.2575 10.4222 5.60571 9.90817 5.09163C9.3941 4.57759 8.7423 4.24947 8.02318 4.14285C7.69576 4.09431 7.36379 4.09431 7.0364 4.14285C6.14765 4.27466 5.36346 4.74464 4.82824 5.46625C4.29301 6.18786 4.07079 7.07474 4.2026 7.96343C4.33441 8.85215 4.80439 9.63634 5.526 10.1716C6.11182 10.6061 6.80645 10.8343 7.52267 10.8343C7.6887 10.8343 7.85592 10.822 8.02315 10.7972C8.9119 10.6654 9.69609 10.1954 10.2313 9.4738C10.7666 8.75222 10.9888 7.86537 10.857 6.97665ZM7.8454 9.59846C7.2769 9.68289 6.70956 9.54066 6.24793 9.19826C5.7863 8.85587 5.48566 8.35419 5.40137 7.78569C5.31705 7.21718 5.45917 6.64985 5.80157 6.18822C6.14399 5.72658 6.64564 5.42594 7.21417 5.34162C7.31888 5.3261 7.42432 5.31833 7.52976 5.31833C7.6352 5.31833 7.74067 5.3261 7.84538 5.34165C8.78964 5.48166 9.51817 6.21016 9.65821 7.15446C9.83223 8.32803 9.01904 9.42444 7.8454 9.59846Z" fill="white"/>
<path d="M11.7206 3.27978C11.6077 3.16695 11.4514 3.10229 11.2919 3.10229C11.1323 3.10229 10.9761 3.16692 10.8631 3.27978C10.7502 3.39263 10.6855 3.54854 10.6855 3.70824C10.6855 3.86794 10.7502 4.02386 10.8631 4.13671C10.9761 4.24953 11.1323 4.31419 11.2919 4.31419C11.4514 4.31419 11.6077 4.24956 11.7206 4.13671C11.8335 4.02386 11.8982 3.86768 11.8982 3.70824C11.8982 3.54878 11.8335 3.3926 11.7206 3.27978Z" fill="white"/>
</svg>
