<svg width="17" height="17" viewBox="0 0 17 17" fill="none" xmlns="http://www.w3.org/2000/svg">
<path d="M12.2279 0.0717773H4.52717C2.0309 0.0717773 0 2.10267 0 4.59895V12.2997C0 14.7959 2.0309 16.8268 4.52717 16.8268H12.2279C14.7242 16.8268 16.7551 14.7959 16.7551 12.2997V4.59895C16.7551 2.10267 14.7242 0.0717773 12.2279 0.0717773ZM15.4014 12.2997C15.4014 14.0495 13.9778 15.4732 12.2279 15.4732H4.52717C2.77728 15.4732 1.35362 14.0496 1.35362 12.2997V4.59895C1.35362 2.84906 2.77725 1.4254 4.52717 1.4254H12.2279C13.9778 1.4254 15.4014 2.84903 15.4014 4.59895V12.2997Z" fill="white"/>
<path d="M12.1272 7.86472C12.0081 7.06143 11.6416 6.33337 11.0674 5.75915C10.4932 5.18496 9.7651 4.81845 8.96184 4.69936C8.59611 4.64514 8.22531 4.64514 7.85961 4.69936C6.86687 4.84659 5.99093 5.37156 5.39308 6.1776C4.79523 6.98364 4.54702 7.97429 4.69424 8.96696C4.84147 9.95966 5.36644 10.8356 6.17248 11.4335C6.82685 11.9188 7.60275 12.1737 8.40277 12.1737C8.58822 12.1737 8.77502 12.16 8.96181 12.1323C9.95455 11.9851 10.8305 11.4601 11.4283 10.654C12.0262 9.84804 12.2744 8.85743 12.1272 7.86472ZM8.76327 10.7933C8.12824 10.8876 7.49453 10.7287 6.97889 10.3463C6.46324 9.96382 6.12742 9.40344 6.03327 8.76842C5.93909 8.13339 6.09784 7.49968 6.48029 6.98404C6.86278 6.46839 7.42312 6.13257 8.05818 6.03839C8.17514 6.02105 8.29292 6.01237 8.41069 6.01237C8.52847 6.01237 8.64628 6.02105 8.76324 6.03842C9.81799 6.19481 10.6318 7.00855 10.7882 8.06333C10.9826 9.37422 10.0742 10.5989 8.76327 10.7933Z" fill="white"/>
<path d="M13.0922 3.73536C12.9661 3.60933 12.7915 3.53711 12.6133 3.53711C12.4351 3.53711 12.2605 3.6093 12.1344 3.73536C12.0083 3.86141 11.936 4.03557 11.936 4.21395C11.936 4.39234 12.0083 4.5665 12.1344 4.69255C12.2605 4.81858 12.4351 4.8908 12.6133 4.8908C12.7915 4.8908 12.9661 4.81861 13.0922 4.69255C13.2183 4.5665 13.2906 4.39204 13.2906 4.21395C13.2906 4.03583 13.2183 3.86138 13.0922 3.73536Z" fill="white"/>
</svg>
