<svg width="60" height="60" viewBox="0 0 60 60" fill="none" xmlns="http://www.w3.org/2000/svg">
<path d="M0 0H60V60H0V0Z" fill="#151515"/>
<path d="M18.383 14.6679H25.855V16.9331H20.837V19.1983H25.4775V21.4635H20.837V25.8052H18.383V14.6679Z" fill="white"/>
<path d="M35.1846 13.8886H37.6385V22.7607H42.1847V25.0259H35.1846V13.8886Z" fill="white"/>
<path d="M26.5123 39.9044C26.5123 40.5651 26.4127 41.1733 26.2134 41.7291C26.0142 42.285 25.7153 42.7674 25.3168 43.1764C24.9287 43.5854 24.4411 43.9052 23.8538 44.1359C23.2665 44.3666 22.5901 44.482 21.8246 44.482C21.0485 44.482 20.3668 44.3666 19.7796 44.1359C19.1923 43.9052 18.6994 43.5854 18.3009 43.1764C17.9129 42.7674 17.6192 42.285 17.42 41.7291C17.2207 41.1733 17.1211 40.5651 17.1211 39.9044V33.0615H19.5751V39.81C19.5751 40.1561 19.6275 40.4759 19.7324 40.7696C19.8477 41.0632 20.005 41.3201 20.2043 41.5404C20.4035 41.7501 20.6395 41.9179 20.9122 42.0437C21.1953 42.1591 21.4995 42.2168 21.8246 42.2168C22.1497 42.2168 22.4485 42.1591 22.7212 42.0437C22.9939 41.9179 23.2298 41.7501 23.4291 41.5404C23.6283 41.3201 23.7804 41.0632 23.8853 40.7696C24.0006 40.4759 24.0583 40.1561 24.0583 39.81V33.0615H26.5123V39.9044Z" fill="white"/>
<path d="M36.4071 38.3785L32.7261 33.0615H35.8093L38.1846 36.9627L40.4656 33.0615H43.4387L39.8364 38.3313L43.8634 44.1989H40.7802L38.0588 39.7156L35.416 44.1989H32.5059L36.4071 38.3785Z" fill="white"/>
</svg>
