<svg width="20" height="15" viewBox="0 0 20 15" fill="none" xmlns="http://www.w3.org/2000/svg">
<path d="M17.8173 0H1.61977C0.726421 0 0 0.726421 0 1.61977V12.958C0 13.8514 0.726421 14.5778 1.61977 14.5778H17.8173C18.7106 14.5778 19.437 13.8514 19.437 12.958V1.61977C19.437 0.726421 18.7106 0 17.8173 0ZM1.61977 0.809864H17.8173C17.877 0.809864 17.9296 0.831617 17.9856 0.843917C16.5832 2.12733 11.9334 6.38116 10.3062 7.84725C10.1789 7.96193 9.97363 8.09875 9.71856 8.09875C9.46348 8.09875 9.25825 7.96193 9.13051 7.84687C7.50345 6.381 2.85333 2.12695 1.45125 0.843992C1.50736 0.831693 1.56005 0.809864 1.61977 0.809864ZM0.809864 12.958V1.61977C0.809864 1.54042 0.83378 1.46845 0.855192 1.39594C1.92848 2.37827 5.17295 5.34636 7.2767 7.25943C5.17978 9.06066 1.93448 12.1375 0.852648 13.1691C0.833553 13.1002 0.809864 13.0329 0.809864 12.958ZM17.8173 13.7679H1.61977C1.55508 13.7679 1.49756 13.7454 1.43716 13.7309C2.55506 12.6652 5.82101 9.57073 7.88107 7.80837C8.14962 8.05198 8.39494 8.2741 8.58832 8.44835C8.92209 8.7497 9.31277 8.90865 9.71852 8.90865C10.1243 8.90865 10.5149 8.74966 10.8483 8.44873C11.0418 8.27441 11.2873 8.05209 11.556 7.80837C13.6161 9.57054 16.8816 12.6648 17.9999 13.7309C17.9395 13.7454 17.882 13.7679 17.8173 13.7679ZM18.6272 12.958C18.6272 13.0328 18.6035 13.1002 18.5844 13.1691C17.5022 12.1369 14.2573 9.06047 12.1604 7.25947C14.2642 5.3464 17.5082 2.37857 18.5818 1.39586C18.6033 1.46837 18.6272 1.54038 18.6272 1.61973V12.958Z" fill="black"/>
</svg>
