<svg width="20" height="16" viewBox="0 0 20 16" fill="none" xmlns="http://www.w3.org/2000/svg">
<path d="M17.8173 0.665283H1.61977C0.726421 0.665283 0 1.3917 0 2.28505V13.6233C0 14.5166 0.726421 15.2431 1.61977 15.2431H17.8173C18.7106 15.2431 19.437 14.5166 19.437 13.6233V2.28505C19.437 1.3917 18.7106 0.665283 17.8173 0.665283ZM1.61977 1.47515H17.8173C17.877 1.47515 17.9296 1.4969 17.9856 1.5092C16.5832 2.79261 11.9334 7.04644 10.3062 8.51253C10.1789 8.62722 9.97363 8.76403 9.71856 8.76403C9.46348 8.76403 9.25825 8.62722 9.13051 8.51215C7.50345 7.04629 2.85333 2.79223 1.45125 1.50928C1.50736 1.49698 1.56005 1.47515 1.61977 1.47515ZM0.809864 13.6233V2.28505C0.809864 2.20571 0.83378 2.13373 0.855192 2.06122C1.92848 3.04355 5.17295 6.01164 7.2767 7.92471C5.17978 9.72594 1.93448 12.8028 0.852648 13.8344C0.833553 13.7655 0.809864 13.6982 0.809864 13.6233ZM17.8173 14.4332H1.61977C1.55508 14.4332 1.49756 14.4106 1.43716 14.3962C2.55506 13.3305 5.82101 10.236 7.88107 8.47366C8.14962 8.71726 8.39494 8.93938 8.58832 9.11364C8.92209 9.41498 9.31277 9.57394 9.71852 9.57394C10.1243 9.57394 10.5149 9.41495 10.8483 9.11401C11.0418 8.93969 11.2873 8.71738 11.556 8.47366C13.6161 10.2358 16.8816 13.3301 17.9999 14.3962C17.9395 14.4106 17.882 14.4332 17.8173 14.4332ZM18.6272 13.6233C18.6272 13.6981 18.6035 13.7655 18.5844 13.8344C17.5022 12.8022 14.2573 9.72575 12.1604 7.92475C14.2642 6.01168 17.5082 3.04385 18.5818 2.06114C18.6033 2.13365 18.6272 2.20567 18.6272 2.28501V13.6233Z" fill="white"/>
</svg>
