<svg width="21" height="16" viewBox="0 0 21 16" fill="none" xmlns="http://www.w3.org/2000/svg">
<path d="M18.8417 1.86083L20.4375 0.334167V0H14.9092L10.9692 9.80667L6.48667 0H0.69V0.334167L2.55417 2.57833C2.73583 2.74417 2.83083 2.98667 2.80667 3.23083V12.05C2.86417 12.3675 2.76083 12.6942 2.5375 12.925L0.4375 15.47V15.8H6.39167V15.4658L4.29167 12.925C4.06417 12.6933 3.95667 12.3725 4.0025 12.05V4.42167L9.22917 15.8042H9.83667L14.3308 4.42167V13.4892C14.3308 13.7283 14.3308 13.7775 14.1742 13.9342L12.5575 15.4983V15.8333H20.4008V15.4992L18.8425 13.9733C18.7058 13.87 18.635 13.6967 18.6642 13.5283V2.30583C18.635 2.13667 18.705 1.96333 18.8417 1.86083Z" fill="black"/>
</svg>
