<svg width="19" height="16" viewBox="0 0 19 16" fill="none" xmlns="http://www.w3.org/2000/svg">
<path d="M17.4358 2.32539L18.9476 0.879079V0.5625H13.7102L9.97761 9.85303L5.73103 0.5625H0.239455V0.879079L2.00551 3.00513C2.17761 3.16224 2.26761 3.39197 2.24472 3.62329V11.9783C2.29919 12.2791 2.2013 12.5886 1.98972 12.8072L0.000244141 15.2183V15.5309H5.64103V15.2143L3.65156 12.8072C3.43603 12.5878 3.33419 12.2838 3.37761 11.9783V4.75145L8.32919 15.5349H8.90472L13.1624 4.75145V13.3417C13.1624 13.5683 13.1624 13.6149 13.0139 13.7633L11.4824 15.2451V15.5625H18.9129V15.2459L17.4366 13.8004C17.3071 13.7025 17.24 13.5383 17.2676 13.3788V2.74697C17.24 2.58671 17.3063 2.4225 17.4358 2.32539Z" fill="white"/>
</svg>
