<svg width="41" height="17" viewBox="0 0 41 17" fill="none" xmlns="http://www.w3.org/2000/svg">
<path d="M9.36706 5.44031C9.20975 5.21221 8.99738 5.04704 8.72996 4.94479C8.47041 4.83467 8.19512 4.77962 7.9041 4.77962C7.73106 4.77962 7.56196 4.79928 7.39679 4.83861C7.23948 4.87793 7.09397 4.94086 6.96026 5.02738C6.83442 5.11389 6.73217 5.22794 6.65351 5.36952C6.57486 5.50323 6.53553 5.66447 6.53553 5.85324C6.53553 6.13639 6.63385 6.35269 6.83048 6.50213C7.02712 6.65157 7.27094 6.78135 7.56196 6.89146C7.85298 7.00158 8.17152 7.10776 8.5176 7.21001C8.86367 7.31226 9.18222 7.45383 9.47324 7.63474C9.76426 7.81564 10.0081 8.05553 10.2047 8.35441C10.4013 8.6533 10.4997 9.0505 10.4997 9.54601C10.4997 9.99434 10.4171 10.3876 10.2519 10.7258C10.0867 11.0562 9.86257 11.3314 9.57942 11.5517C9.30413 11.7719 8.98165 11.9371 8.61198 12.0472C8.24231 12.1573 7.85298 12.2124 7.44398 12.2124C6.92487 12.2124 6.42542 12.1258 5.94563 11.9528C5.46585 11.7798 5.05292 11.4888 4.70684 11.0798L5.82765 9.99434C6.00855 10.2696 6.24452 10.4859 6.53553 10.6432C6.83442 10.7927 7.14903 10.8674 7.47937 10.8674C7.65241 10.8674 7.82545 10.8438 7.99849 10.7966C8.17152 10.7494 8.32883 10.6786 8.47041 10.5842C8.61198 10.4899 8.72603 10.3719 8.81255 10.2303C8.89907 10.0809 8.94233 9.91175 8.94233 9.72298C8.94233 9.41624 8.84401 9.18028 8.64738 9.0151C8.45074 8.84993 8.20692 8.71229 7.9159 8.60217C7.62488 8.48419 7.30634 8.37408 6.96026 8.27183C6.61419 8.16958 6.29564 8.03194 6.00462 7.8589C5.7136 7.678 5.46978 7.44203 5.27315 7.15102C5.07651 6.85213 4.9782 6.45493 4.9782 5.95942C4.9782 5.52682 5.06471 5.15322 5.23775 4.83861C5.41865 4.52399 5.65068 4.26444 5.93383 4.05994C6.22485 3.84757 6.5552 3.69027 6.92487 3.58802C7.29454 3.48577 7.67207 3.43464 8.05748 3.43464C8.49794 3.43464 8.92266 3.5015 9.33166 3.63521C9.74852 3.76892 10.1221 3.98915 10.4525 4.2959L9.36706 5.44031ZM17.7816 5.60548C17.4749 5.27513 17.176 5.0549 16.885 4.94479C16.6018 4.83467 16.3147 4.77962 16.0237 4.77962C15.5911 4.77962 15.1979 4.85827 14.8439 5.01558C14.4978 5.16502 14.199 5.37738 13.9473 5.65267C13.6956 5.92009 13.4989 6.23471 13.3574 6.59651C13.2237 6.95832 13.1568 7.34765 13.1568 7.76451C13.1568 8.21284 13.2237 8.62577 13.3574 9.00331C13.4989 9.38084 13.6956 9.70725 13.9473 9.98254C14.199 10.2578 14.4978 10.4741 14.8439 10.6314C15.1979 10.7887 15.5911 10.8674 16.0237 10.8674C16.3619 10.8674 16.6883 10.7887 17.0029 10.6314C17.3254 10.4663 17.6243 10.2067 17.8996 9.85276L19.1266 10.7258C18.7491 11.2449 18.2889 11.6225 17.7462 11.8584C17.2035 12.0944 16.6254 12.2124 16.0119 12.2124C15.367 12.2124 14.7731 12.1101 14.2304 11.9056C13.6956 11.6933 13.2315 11.3983 12.8383 11.0208C12.4528 10.6354 12.15 10.1752 11.9298 9.6404C11.7096 9.10555 11.5995 8.51172 11.5995 7.8589C11.5995 7.19034 11.7096 6.58471 11.9298 6.042C12.15 5.49143 12.4528 5.02344 12.8383 4.63804C13.2315 4.25264 13.6956 3.95769 14.2304 3.75319C14.7731 3.54083 15.367 3.43464 16.0119 3.43464C16.5782 3.43464 17.1013 3.53689 17.5811 3.74139C18.0687 3.93803 18.521 4.27624 18.9378 4.75602L17.7816 5.60548ZM22.8261 3.64701H24.1121L27.7105 12H26.0116L25.2329 10.0887H21.6109L20.8558 12H19.1923L22.8261 3.64701ZM24.7138 8.81454L23.4278 5.41671L22.1182 8.81454H24.7138ZM28.6387 3.64701H31.9304C32.481 3.64701 33.0119 3.73353 33.5231 3.90656C34.0344 4.07174 34.4866 4.32736 34.8799 4.67343C35.2732 5.01951 35.5878 5.45604 35.8237 5.98301C36.0597 6.50213 36.1777 7.11562 36.1777 7.8235C36.1777 8.53925 36.04 9.16061 35.7647 9.68759C35.4973 10.2067 35.1473 10.6393 34.7147 10.9854C34.29 11.3236 33.8141 11.5792 33.2872 11.7522C32.768 11.9174 32.2568 12 31.7534 12H28.6387V3.64701ZM31.2343 10.655C31.6984 10.655 32.1349 10.6039 32.5439 10.5017C32.9607 10.3915 33.3225 10.2264 33.6293 10.0061C33.936 9.77804 34.1759 9.48702 34.349 9.13308C34.5299 8.77128 34.6203 8.33475 34.6203 7.8235C34.6203 7.32012 34.5417 6.88753 34.3844 6.52572C34.2271 6.16392 34.0068 5.8729 33.7237 5.65267C33.4484 5.42457 33.1181 5.2594 32.7326 5.15715C32.3551 5.04704 31.9382 4.99198 31.4821 4.99198H30.1253V10.655H31.2343Z" fill="white"/>
</svg>
