<svg width="39" height="11" viewBox="0 0 39 11" fill="none" xmlns="http://www.w3.org/2000/svg">
<path d="M4.37562 10.1314C6.35976 10.1314 7.7526 9.10648 7.7526 7.28002V7.25374C7.7526 5.65066 6.7014 4.98052 4.83552 4.49434C3.24558 4.087 2.85138 3.8899 2.85138 3.28546V3.25918C2.85138 2.81242 3.25872 2.45764 4.03398 2.45764C4.80924 2.45764 5.61078 2.79928 6.42546 3.3643L7.47666 1.84006C6.54372 1.09108 5.40054 0.670599 4.06026 0.670599C2.18124 0.670599 0.84096 1.77436 0.84096 3.44314V3.46942C0.84096 5.29588 2.0367 5.80834 3.88944 6.28138C5.42682 6.67558 5.74218 6.93838 5.74218 7.45084V7.47712C5.74218 8.01586 5.24286 8.34436 4.41504 8.34436C3.36384 8.34436 2.4966 7.91074 1.66878 7.22746L0.47304 8.65972C1.5768 9.64522 2.98278 10.1314 4.37562 10.1314ZM13.8187 10.1577C15.5926 10.1577 16.6438 9.52696 17.5898 8.51518L16.3021 7.21432C15.5794 7.87132 14.9356 8.2918 13.8844 8.2918C12.3076 8.2918 11.2169 6.9778 11.2169 5.401V5.37472C11.2169 3.79792 12.3338 2.5102 13.8844 2.5102C14.8042 2.5102 15.5269 2.9044 16.2364 3.54826L17.5241 2.06344C16.67 1.22248 15.632 0.64432 13.8975 0.64432C11.0724 0.64432 9.1014 2.78614 9.1014 5.401V5.42728C9.1014 8.06842 11.1118 10.1577 13.8187 10.1577ZM18.4214 10H20.4843L21.3253 7.93702H25.2147L26.0557 10H28.1712L24.2292 0.736299H22.3634L18.4214 10ZM22.048 6.14998L23.27 3.1672L24.492 6.14998H22.048ZM29.5909 10H33.1781C36.0689 10 38.0662 7.98958 38.0662 5.401V5.37472C38.0662 2.78614 36.0689 0.801999 33.1781 0.801999H29.5909V10ZM31.6144 8.17354V2.62846H33.1781C34.8337 2.62846 35.9506 3.77164 35.9506 5.401V5.42728C35.9506 7.05664 34.8337 8.17354 33.1781 8.17354H31.6144Z" fill="white"/>
</svg>
