<svg width="131" height="91" viewBox="0 0 131 91" fill="none" xmlns="http://www.w3.org/2000/svg">
<g filter="url(#filter0_d)">
<path d="M27 41.5C27 31.2827 35.2827 23 45.5 23H85.5C95.7173 23 104 31.2827 104 41.5C104 51.7173 95.7173 60 85.5 60H45.5C35.2827 60 27 51.7173 27 41.5Z" fill="#151515"/>
</g>
<path d="M54.3671 38.4403C54.2097 38.2122 53.9974 38.047 53.73 37.9448C53.4704 37.8347 53.1951 37.7796 52.9041 37.7796C52.7311 37.7796 52.562 37.7993 52.3968 37.8386C52.2395 37.8779 52.094 37.9409 51.9603 38.0274C51.8344 38.1139 51.7322 38.2279 51.6535 38.3695C51.5749 38.5032 51.5355 38.6645 51.5355 38.8532C51.5355 39.1364 51.6338 39.3527 51.8305 39.5021C52.0271 39.6516 52.2709 39.7813 52.562 39.8915C52.853 40.0016 53.1715 40.1078 53.5176 40.21C53.8637 40.3123 54.1822 40.4538 54.4732 40.6347C54.7643 40.8156 55.0081 41.0555 55.2047 41.3544C55.4013 41.6533 55.4997 42.0505 55.4997 42.546C55.4997 42.9943 55.4171 43.3876 55.2519 43.7258C55.0867 44.0562 54.8626 44.3314 54.5794 44.5517C54.3041 44.7719 53.9817 44.9371 53.612 45.0472C53.2423 45.1573 52.853 45.2124 52.444 45.2124C51.9249 45.2124 51.4254 45.1258 50.9456 44.9528C50.4658 44.7798 50.0529 44.4888 49.7068 44.0798L50.8277 42.9943C51.0086 43.2696 51.2445 43.4859 51.5355 43.6432C51.8344 43.7927 52.149 43.8674 52.4794 43.8674C52.6524 43.8674 52.8254 43.8438 52.9985 43.7966C53.1715 43.7494 53.3288 43.6786 53.4704 43.5842C53.612 43.4899 53.726 43.3719 53.8125 43.2303C53.8991 43.0809 53.9423 42.9118 53.9423 42.723C53.9423 42.4162 53.844 42.1803 53.6474 42.0151C53.4507 41.8499 53.2069 41.7123 52.9159 41.6022C52.6249 41.4842 52.3063 41.3741 51.9603 41.2718C51.6142 41.1696 51.2956 41.0319 51.0046 40.8589C50.7136 40.678 50.4698 40.442 50.2731 40.151C50.0765 39.8521 49.9782 39.4549 49.9782 38.9594C49.9782 38.5268 50.0647 38.1532 50.2378 37.8386C50.4187 37.524 50.6507 37.2644 50.9338 37.0599C51.2249 36.8476 51.5552 36.6903 51.9249 36.588C52.2945 36.4858 52.6721 36.4346 53.0575 36.4346C53.4979 36.4346 53.9227 36.5015 54.3317 36.6352C54.7485 36.7689 55.1221 36.9892 55.4525 37.2959L54.3671 38.4403ZM62.7816 38.6055C62.4749 38.2751 62.176 38.0549 61.885 37.9448C61.6018 37.8347 61.3147 37.7796 61.0237 37.7796C60.5911 37.7796 60.1979 37.8583 59.8439 38.0156C59.4978 38.165 59.199 38.3774 58.9473 38.6527C58.6956 38.9201 58.4989 39.2347 58.3574 39.5965C58.2237 39.9583 58.1568 40.3477 58.1568 40.7645C58.1568 41.2128 58.2237 41.6258 58.3574 42.0033C58.4989 42.3808 58.6956 42.7073 58.9473 42.9825C59.199 43.2578 59.4978 43.4741 59.8439 43.6314C60.1979 43.7887 60.5911 43.8674 61.0237 43.8674C61.3619 43.8674 61.6883 43.7887 62.0029 43.6314C62.3254 43.4663 62.6243 43.2067 62.8996 42.8528L64.1266 43.7258C63.7491 44.2449 63.2889 44.6225 62.7462 44.8584C62.2035 45.0944 61.6254 45.2124 61.0119 45.2124C60.367 45.2124 59.7731 45.1101 59.2304 44.9056C58.6956 44.6933 58.2315 44.3983 57.8383 44.0208C57.4528 43.6354 57.15 43.1752 56.9298 42.6404C56.7096 42.1056 56.5995 41.5117 56.5995 40.8589C56.5995 40.1903 56.7096 39.5847 56.9298 39.042C57.15 38.4914 57.4528 38.0234 57.8383 37.638C58.2315 37.2526 58.6956 36.9577 59.2304 36.7532C59.7731 36.5408 60.367 36.4346 61.0119 36.4346C61.5782 36.4346 62.1013 36.5369 62.5811 36.7414C63.0687 36.938 63.521 37.2762 63.9378 37.756L62.7816 38.6055ZM67.8261 36.647H69.1121L72.7105 45H71.0116L70.2329 43.0887H66.6109L65.8558 45H64.1923L67.8261 36.647ZM69.7138 41.8145L68.4278 38.4167L67.1182 41.8145H69.7138ZM73.6387 36.647H76.9304C77.481 36.647 78.0119 36.7335 78.5231 36.9066C79.0344 37.0717 79.4866 37.3274 79.8799 37.6734C80.2732 38.0195 80.5878 38.456 80.8237 38.983C81.0597 39.5021 81.1777 40.1156 81.1777 40.8235C81.1777 41.5393 81.04 42.1606 80.7647 42.6876C80.4973 43.2067 80.1473 43.6393 79.7147 43.9854C79.29 44.3236 78.8141 44.5792 78.2872 44.7522C77.768 44.9174 77.2568 45 76.7534 45H73.6387V36.647ZM76.2343 43.655C76.6984 43.655 77.1349 43.6039 77.5439 43.5017C77.9607 43.3915 78.3225 43.2264 78.6293 43.0061C78.936 42.778 79.1759 42.487 79.349 42.1331C79.5299 41.7713 79.6203 41.3348 79.6203 40.8235C79.6203 40.3201 79.5417 39.8875 79.3844 39.5257C79.2271 39.1639 79.0068 38.8729 78.7237 38.6527C78.4484 38.4246 78.1181 38.2594 77.7326 38.1572C77.3551 38.047 76.9382 37.992 76.4821 37.992H75.1253V43.655H76.2343Z" fill="white"/>
<defs>
<filter id="filter0_d" x="0.449842" y="0.242722" width="130.1" height="90.1003" filterUnits="userSpaceOnUse" color-interpolation-filters="sRGB">
<feFlood flood-opacity="0" result="BackgroundImageFix"/>
<feColorMatrix in="SourceAlpha" type="matrix" values="0 0 0 0 0 0 0 0 0 0 0 0 0 0 0 0 0 0 127 0"/>
<feOffset dy="3.79288"/>
<feGaussianBlur stdDeviation="13.2751"/>
<feColorMatrix type="matrix" values="0 0 0 0 0 0 0 0 0 0 0 0 0 0 0 0 0 0 0.15 0"/>
<feBlend mode="normal" in2="BackgroundImageFix" result="effect1_dropShadow"/>
<feBlend mode="normal" in="SourceGraphic" in2="effect1_dropShadow" result="shape"/>
</filter>
</defs>
</svg>
