<svg width="23" height="17" viewBox="0 0 23 17" fill="none" xmlns="http://www.w3.org/2000/svg">
<path d="M22.6026 3.06318C22.321 1.84 21.3205 0.937567 20.1161 0.80295C17.2639 0.484571 14.3772 0.482909 11.5037 0.484571C8.62972 0.482909 5.74246 0.484571 2.89034 0.80295C1.68663 0.937567 0.686854 1.84 0.405275 3.06318C0.00451098 4.80513 0 6.70662 0 8.50009C0 10.2936 0 12.1948 0.400764 13.9365C0.681868 15.1595 1.68188 16.0619 2.88631 16.1967C5.73819 16.5154 8.62521 16.517 11.4992 16.5154C14.3736 16.517 17.2599 16.5154 20.1116 16.1967C21.3153 16.0621 22.316 15.1597 22.5976 13.9365C22.9986 12.1946 23 10.2933 23 8.50009C23 6.70662 23.0033 4.80513 22.6026 3.06318ZM8.5319 12.0699C8.5319 9.52574 8.5319 7.00814 8.5319 4.46372C10.9695 5.73557 13.3909 6.99888 15.8439 8.27857C13.3985 9.54687 10.9759 10.8026 8.5319 12.0699Z" fill="white"/>
</svg>
