<svg width="24" height="17" viewBox="0 0 24 17" fill="none" xmlns="http://www.w3.org/2000/svg">
<path d="M23.0401 2.57881C22.7585 1.35562 21.758 0.453192 20.5536 0.318575C17.7014 0.00019608 14.8147 -0.00146577 11.9412 0.000196166C9.06722 -0.00146577 6.17996 0.00019608 3.32784 0.318575C2.12413 0.453192 1.12435 1.35562 0.842775 2.57881C0.442011 4.32075 0.4375 6.22224 0.4375 8.01571C0.4375 9.80918 0.4375 11.7104 0.838264 13.4521C1.11937 14.6751 2.11938 15.5775 3.32381 15.7124C6.17569 16.031 9.06271 16.0326 11.9367 16.031C14.8111 16.0326 17.6974 16.031 20.5491 15.7124C21.7528 15.5778 22.7535 14.6753 23.0351 13.4521C23.4361 11.7102 23.4375 9.80894 23.4375 8.01571C23.4375 6.22224 23.4408 4.32075 23.0401 2.57881ZM8.9694 11.5855C8.9694 9.04136 8.9694 6.52377 8.9694 3.97934C11.407 5.2512 13.8284 6.51451 16.2814 7.7942C13.836 9.06249 11.4134 10.3182 8.9694 11.5855Z" fill="black"/>
</svg>
